<svg xmlns="http://www.w3.org/2000/svg" viewBox="0 0 48 48" width="24" height="24">
  <path fill="#4285F4" d="M24 9.5c3.9 0 6.6 1.7 8.1 3.1l6-5.8C34.9 4 30.8 2.5 24 2.5 14.9 2.5 7.6 7.6 4 15.1l7.3 5.7C12.6 15 17.7 9.5 24 9.5z"/>
  <path fill="#34A853" d="M46.5 24.5c0-1.3-.1-2.5-.4-3.7H24v7.1h12.7c-.5 2.5-2 4.6-4.3 6l6.1 4.6c3.6-3.3 5.9-8.3 5.9-14z"/>
  <path fill="#FBBC05" d="M11.3 29.4c-1.3-2.5-1.3-5.2 0-7.7l-7.3-5.7C1.1 19.6 0 21.8 0 24c0 2.2 1.1 4.4 3 6l8.3-.6z"/>
  <path fill="#EA4335" d="M24 46.5c6.8 0 11.9-2.2 15.9-6l-7.6-5.7c-2.1 1.4-4.9 2.3-8.3 2.3-6.3 0-11.4-4.7-12.9-11.1l-8.3.6C7.6 40.4 14.9 46.5 24 46.5z"/>
</svg>
